name C:\Users\antoi\Documents\MyRepositories\upper-imu-dc\Results\main_tracking\Case_97\kinematics.mot
datacolumns 43
datarows 8
range 7.88000000 8.02000000
endheader 
time	clav_prot	clav_elev	scapula_abduction	scapula_elevation	scapula_upward_rot	scapula_winging	plane_elv	shoulder_elv	axial_rot	TrapeziusScapula_M/activation	TrapeziusScapula_S/activation	TrapeziusScapula_I/activation	TrapeziusClavicle_S/activation	SerratusAnterior_I/activation	SerratusAnterior_M/activation	SerratusAnterior_S/activation	Rhomboideus_S/activation	Rhomboideus_I/activation	LevatorScapulae/activation	Coracobrachialis/activation	DeltoideusClavicle_A/activation	DeltoideusScapula_P/activation	DeltoideusScapula_M/activation	LatissimusDorsi_S/activation	LatissimusDorsi_M/activation	LatissimusDorsi_I/activation	PectoralisMajorClavicle_S/activation	PectoralisMajorThorax_I/activation	PectoralisMajorThorax_M/activation	TeresMajor/activation	Infraspinatus_I/activation	Infraspinatus_S/activation	PectoralisMinor/activation	TeresMinor/activation	Subscapularis_S/activation	Subscapularis_M/activation	Subscapularis_I/activation	Supraspinatus_P/activation	Supraspinatus_A/activation	TRIlong/activation	BIC_long/activation	BIC_brevis/activation	
          7.88000000	        -43.16771059	          4.32550475	        -22.69235107	         -5.61591621	         49.58414916	        -10.70259396	         34.72255127	         80.33387896	         -6.69874820	          0.01865251	          0.04174707	          0.01507772	          0.02679039	          0.05012699	          0.06839932	          0.01440847	          0.01139668	          0.01000142	          0.01114009	          0.04432972	          0.07735868	          0.01000014	          0.07942787	          0.01000064	          0.01000022	          0.01000019	          0.03538606	          0.01000023	          0.02297135	          0.01000027	          0.03225194	          0.02216288	          0.01000092	          0.01233196	          0.01996416	          0.01298879	          0.01000122	          0.03425861	          0.04457362	          0.01000007	          0.03725467	          0.04435775	
          7.90000000	        -42.88390215	          4.20817473	        -22.85222412	         -5.61464708	         48.77120409	        -10.41344474	         34.40207110	         79.47571489	         -6.11971640	          0.01963202	          0.04263098	          0.01636650	          0.02655880	          0.05169144	          0.06754866	          0.01377145	          0.01080002	          0.01000159	          0.01024367	          0.04375345	          0.07767639	          0.01000011	          0.08133364	          0.01000070	          0.01000025	          0.01000027	          0.03488164	          0.01000040	          0.02213374	          0.01000049	          0.03265805	          0.02294070	          0.01000098	          0.01245572	          0.01975307	          0.01282280	          0.01000134	          0.03445109	          0.04481954	          0.01000009	          0.03778120	          0.04376875	
          7.92000000	        -42.60289357	          4.08124283	        -23.01112468	         -5.61654015	         47.95995041	        -10.11958656	         34.05587434	         78.58976421	         -5.57186208	          0.02058219	          0.04357625	          0.01724591	          0.02636641	          0.05358925	          0.06686607	          0.01292881	          0.01019925	          0.01000147	          0.01000857	          0.04371635	          0.07877764	          0.01000043	          0.08340583	          0.01000073	          0.01000025	          0.01000025	          0.03460449	          0.01000015	          0.02138813	          0.01000045	          0.03324873	          0.02305718	          0.01000117	          0.01298832	          0.01955428	          0.01280229	          0.01000107	          0.03447609	          0.04503770	          0.01000022	          0.03797161	          0.04347831	
          7.94000000	        -42.32710308	          3.94715209	        -23.16869220	         -5.62066906	         47.15642413	         -9.82404727	         33.67695642	         77.68107247	         -5.06607975	          0.02177210	          0.04459873	          0.01872197	          0.02610235	          0.05570563	          0.06601238	          0.01203150	          0.01000785	          0.01000121	          0.01000205	          0.04278000	          0.07880378	          0.01000022	          0.08550855	          0.01000073	          0.01000021	          0.01000023	          0.03393278	          0.01000021	          0.02026659	          0.01000038	          0.03377119	          0.02402515	          0.01000130	          0.01321285	          0.01914881	          0.01247835	          0.01000101	          0.03455910	          0.04494765	          0.01000010	          0.03828243	          0.04271645	
          7.96000000	        -42.05980468	          3.80895927	        -23.32593348	         -5.62587376	         46.36688352	         -9.53064754	         33.25854219	         76.75441897	         -4.61157887	          0.02285524	          0.04587778	          0.02008608	          0.02596710	          0.05790313	          0.06561278	          0.01122419	          0.01000145	          0.01000104	          0.01000155	          0.04223535	          0.07942539	          0.01000013	          0.08787395	          0.01000074	          0.01000017	          0.01000018	          0.03347965	          0.01000016	          0.01924155	          0.01000036	          0.03441297	          0.02487390	          0.01000054	          0.01346388	          0.01877604	          0.01213852	          0.01000110	          0.03477822	          0.04517603	          0.01000009	          0.03875598	          0.04227310	
          7.98000000	        -41.80383770	          3.66892338	        -23.48317953	         -5.63159840	         45.59737136	         -9.24267845	         32.79454125	         75.81616012	         -4.21545398	          0.02367660	          0.04695514	          0.02054357	          0.02595545	          0.05959943	          0.06541722	          0.01052699	          0.01000277	          0.01000060	          0.01000116	          0.04231716	          0.08055961	          0.01000034	          0.08957062	          0.01000095	          0.01000046	          0.01000042	          0.03344125	          0.01000033	          0.01854004	          0.01000013	          0.03501777	          0.02515457	          0.01000112	          0.01386295	          0.01847107	          0.01187215	          0.01000020	          0.03499942	          0.04566883	          0.01000006	          0.03919829	          0.04225813	
          8.00000000	        -41.56186825	          3.53096837	        -23.64163920	         -5.63613919	         44.85319759	         -8.96393395	         32.28237704	         74.87212675	         -3.88133967	          0.02507075	          0.04890548	          0.02346587	          0.02608278	          0.06146843	          0.06633710	          0.01057729	          0.01000096	          0.01000107	          0.01000100	          0.04165892	          0.08136695	          0.01000006	          0.09270071	          0.01000070	          0.01000021	          0.01000036	          0.03307923	          0.01000070	          0.01781419	          0.01000068	          0.03575807	          0.02670075	          0.01000086	          0.01373634	          0.01810320	          0.01134908	          0.01000165	          0.03563956	          0.04641805	          0.01000018	          0.04033005	          0.04189617	
          8.02000000	        -41.33721279	          3.39865189	        -23.80300098	         -5.63822693	         44.14027783	         -8.69851570	         31.72053787	         73.92949507	         -3.60872488	          0.02492569	          0.04977936	          0.02295382	          0.02631110	          0.06207693	          0.06629746	          0.01043534	          0.01000249	          0.01000099	          0.01000142	          0.04239944	          0.08248776	          0.01000011	          0.09281753	          0.01000073	          0.01000019	          0.01000023	          0.03339828	          0.01000042	          0.01765809	          0.01000025	          0.03610684	          0.02663424	          0.01000072	          0.01396630	          0.01798233	          0.01117142	          0.01000111	          0.03603602	          0.04743366	          0.01000005	          0.04106710	          0.04239258	
